<svg id="visual" viewBox="0 0 900 600" width="900" height="600" xmlns="http://www.w3.org/2000/svg" xmlns:xlink="http://www.w3.org/1999/xlink" version="1.1"><path d="M0 97L82 97L82 43L164 43L164 43L245 43L245 133L327 133L327 49L409 49L409 61L491 61L491 85L573 85L573 67L655 67L655 127L736 127L736 73L818 73L818 79L900 79L900 109L900 0L900 0L818 0L818 0L736 0L736 0L655 0L655 0L573 0L573 0L491 0L491 0L409 0L409 0L327 0L327 0L245 0L245 0L164 0L164 0L82 0L82 0L0 0Z" fill="#e9e3e2"></path><path d="M0 151L82 151L82 97L164 97L164 121L245 121L245 169L327 169L327 91L409 91L409 157L491 157L491 163L573 163L573 139L655 139L655 175L736 175L736 115L818 115L818 175L900 175L900 211L900 107L900 77L818 77L818 71L736 71L736 125L655 125L655 65L573 65L573 83L491 83L491 59L409 59L409 47L327 47L327 131L245 131L245 41L164 41L164 41L82 41L82 95L0 95Z" fill="#e3b6ae"></path><path d="M0 241L82 241L82 259L164 259L164 187L245 187L245 319L327 319L327 259L409 259L409 235L491 235L491 307L573 307L573 217L655 217L655 247L736 247L736 259L818 259L818 271L900 271L900 325L900 209L900 173L818 173L818 113L736 113L736 173L655 173L655 137L573 137L573 161L491 161L491 155L409 155L409 89L327 89L327 167L245 167L245 119L164 119L164 95L82 95L82 149L0 149Z" fill="#d7897d"></path><path d="M0 391L82 391L82 415L164 415L164 433L245 433L245 409L327 409L327 511L409 511L409 493L491 493L491 433L573 433L573 463L655 463L655 451L736 451L736 487L818 487L818 403L900 403L900 469L900 323L900 269L818 269L818 257L736 257L736 245L655 245L655 215L573 215L573 305L491 305L491 233L409 233L409 257L327 257L327 317L245 317L245 185L164 185L164 257L82 257L82 239L0 239Z" fill="#c65b4e"></path><path d="M0 601L82 601L82 601L164 601L164 601L245 601L245 601L327 601L327 601L409 601L409 601L491 601L491 601L573 601L573 601L655 601L655 601L736 601L736 601L818 601L818 601L900 601L900 601L900 467L900 401L818 401L818 485L736 485L736 449L655 449L655 461L573 461L573 431L491 431L491 491L409 491L409 509L327 509L327 407L245 407L245 431L164 431L164 413L82 413L82 389L0 389Z" fill="#b02323"></path></svg>